<svg width="25" height="25" viewBox="0 0 25 25" fill="none" xmlns="http://www.w3.org/2000/svg">
<path d="M12.5 11.875C19.4043 11.875 25 9.54102 25 6.66504C25 3.78906 19.4043 1.45508 12.5 1.45508C5.5957 1.45508 0 3.78906 0 6.66504C0 9.54102 5.5957 11.875 12.5 11.875ZM12.5 20.2051C7.72949 20.2051 3.51074 19.0576 0.849609 17.2852C0.307617 17.8711 0 18.501 0 19.165C0 22.041 5.5957 24.375 12.5 24.375C19.4043 24.375 25 22.041 25 19.165C25 18.501 24.6924 17.8711 24.1504 17.29C21.4893 19.0576 17.2705 20.2051 12.5 20.2051ZM12.5 13.9551C7.72949 13.9551 3.51074 12.8076 0.849609 11.0352C0.307617 11.6211 0 12.251 0 12.915C0 15.791 5.5957 18.125 12.5 18.125C19.4043 18.125 25 15.791 25 12.915C25 12.251 24.6924 11.6211 24.1504 11.04C21.4893 12.8076 17.2705 13.9551 12.5 13.9551Z" fill="#FFC107"/>
</svg>
